<svg width="808" height="514" viewBox="0 0 808 514" fill="none" xmlns="http://www.w3.org/2000/svg">
<path d="M808 153.5C808 238.276 627.123 307 404 307C180.877 307 0 238.276 0 153.5C0 68.7243 180.877 0 404 0C627.123 0 808 68.7243 808 153.5Z" fill="#9F7E69"/>
<path d="M244 499C244 507.284 237.284 514 229 514C220.716 514 214 507.284 214 499C214 490.716 220.716 484 229 484C237.284 484 244 490.716 244 499Z" fill="#9F7E69"/>
<path d="M212 414C212 424.493 203.493 433 193 433C182.507 433 174 424.493 174 414C174 403.507 182.507 395 193 395C203.493 395 212 403.507 212 414Z" fill="#9F7E69"/>
<path d="M174 332C174 345.807 162.807 357 149 357C135.193 357 124 345.807 124 332C124 318.193 135.193 307 149 307C162.807 307 174 318.193 174 332Z" fill="#9F7E69"/>
<path d="M130.775 130V110.225H109.682V130H103.676C103.891 128.828 104.018 127.139 104.057 124.932C104.096 122.705 104.115 120.146 104.115 117.256V99.9707C104.115 97.0801 104.096 94.5312 104.057 92.3242C104.018 90.0977 103.891 88.3984 103.676 87.2266H109.682V105.537H130.775V87.2266H136.781C136.566 88.3984 136.439 90.0977 136.4 92.3242C136.361 94.5312 136.342 97.0801 136.342 99.9707V117.256C136.342 120.146 136.361 122.705 136.4 124.932C136.439 127.139 136.566 128.828 136.781 130H130.775Z" fill="black"/>
<path d="M146.771 90.5957C146.771 90.0488 146.859 89.541 147.035 89.0723C147.211 88.584 147.455 88.1641 147.768 87.8125C148.1 87.4414 148.49 87.1582 148.939 86.9629C149.389 86.748 149.887 86.6406 150.434 86.6406C150.98 86.6406 151.488 86.748 151.957 86.9629C152.426 87.1582 152.826 87.4414 153.158 87.8125C153.49 88.1641 153.754 88.584 153.949 89.0723C154.145 89.541 154.242 90.0488 154.242 90.5957C154.242 91.1426 154.145 91.6602 153.949 92.1484C153.754 92.6172 153.49 93.0371 153.158 93.4082C152.826 93.7598 152.426 94.043 151.957 94.2578C151.488 94.4531 150.98 94.5508 150.434 94.5508C149.887 94.5508 149.389 94.4531 148.939 94.2578C148.49 94.043 148.1 93.7598 147.768 93.4082C147.455 93.0371 147.211 92.6172 147.035 92.1484C146.859 91.6602 146.771 91.1426 146.771 90.5957ZM153.217 116.084C153.217 117.021 153.227 118.135 153.246 119.424C153.285 120.693 153.324 121.982 153.363 123.291C153.422 124.6 153.48 125.85 153.539 127.041C153.617 128.232 153.705 129.219 153.803 130H147.797V114.473C147.797 113.047 147.787 111.641 147.768 110.254C147.768 108.867 147.748 107.559 147.709 106.328C147.689 105.078 147.65 103.926 147.592 102.871C147.533 101.797 147.455 100.879 147.357 100.117H153.217V116.084Z" fill="black"/>
<path d="M175.805 100.85H181.664V91.3281H187.084V100.85H196.605V105.098H187.084V118.574C187.084 120.078 187.152 121.309 187.289 122.266C187.445 123.223 187.67 123.975 187.963 124.521C188.275 125.049 188.666 125.41 189.135 125.605C189.604 125.801 190.17 125.898 190.834 125.898C191.674 125.898 192.621 125.713 193.676 125.342C194.73 124.971 195.902 124.424 197.191 123.701V128.389C195.844 129.268 194.555 129.873 193.324 130.205C192.094 130.557 190.961 130.732 189.926 130.732C188.773 130.732 187.699 130.596 186.703 130.322C185.707 130.068 184.828 129.609 184.066 128.945C183.324 128.281 182.738 127.402 182.309 126.309C181.879 125.195 181.664 123.789 181.664 122.09V105.098H175.805V100.85Z" fill="black"/>
<path d="M224.467 130V113.887C224.467 112.051 224.34 110.537 224.086 109.346C223.852 108.154 223.49 107.217 223.002 106.533C222.514 105.83 221.898 105.342 221.156 105.068C220.434 104.795 219.584 104.658 218.607 104.658C217.553 104.658 216.518 104.912 215.502 105.42C214.506 105.908 213.588 106.553 212.748 107.354C211.908 108.135 211.166 109.023 210.521 110.02C209.877 111.016 209.398 112.012 209.086 113.008V130H203.666V96.8945C203.666 93.7305 203.646 90.9668 203.607 88.6035C203.568 86.2207 203.441 84.3945 203.227 83.125H209.086V105.684C210.531 103.633 212.23 102.1 214.184 101.084C216.137 100.049 218.148 99.5312 220.219 99.5312C223.344 99.5312 225.736 100.557 227.396 102.607C229.057 104.639 229.887 107.666 229.887 111.689V130H224.467Z" fill="black"/>
<path d="M242.074 115.791C242.133 117.51 242.396 119.004 242.865 120.273C243.354 121.543 244.008 122.598 244.828 123.438C245.668 124.258 246.645 124.873 247.758 125.283C248.891 125.693 250.121 125.898 251.449 125.898C253.344 125.898 255.199 125.684 257.016 125.254C258.832 124.824 260.639 124.062 262.436 122.969L263.021 127.803C261.986 128.33 260.971 128.779 259.975 129.15C258.979 129.521 257.982 129.824 256.986 130.059C255.99 130.293 254.975 130.459 253.939 130.557C252.924 130.674 251.85 130.732 250.717 130.732C248.842 130.732 247.055 130.41 245.355 129.766C243.656 129.102 242.162 128.135 240.873 126.865C239.584 125.576 238.559 123.984 237.797 122.09C237.035 120.195 236.654 117.998 236.654 115.498C236.654 113.076 236.977 110.889 237.621 108.936C238.285 106.963 239.223 105.283 240.434 103.896C241.645 102.49 243.119 101.416 244.857 100.674C246.596 99.9121 248.549 99.5312 250.717 99.5312C252.318 99.5312 253.734 99.7266 254.965 100.117C256.195 100.488 257.26 101.016 258.158 101.699C259.057 102.363 259.809 103.145 260.414 104.043C261.02 104.941 261.498 105.908 261.85 106.943C262.221 107.979 262.484 109.062 262.641 110.195C262.797 111.309 262.875 112.412 262.875 113.506V114.648C262.875 115.137 262.865 115.518 262.846 115.791H242.074ZM250.277 103.926C248.129 103.926 246.371 104.561 245.004 105.83C243.637 107.08 242.738 109.033 242.309 111.689H257.602C257.602 110.439 257.416 109.336 257.045 108.379C256.693 107.402 256.186 106.582 255.521 105.918C254.877 105.254 254.105 104.756 253.207 104.424C252.309 104.092 251.332 103.926 250.277 103.926Z" fill="black"/>
<path d="M270.521 130V111.982C270.521 109.092 270.355 106.65 270.023 104.658C269.711 102.646 269.389 101.133 269.057 100.117H274.33C274.447 100.43 274.564 100.84 274.682 101.348C274.799 101.836 274.906 102.354 275.004 102.9C275.102 103.447 275.189 103.984 275.268 104.512L275.502 105.83C276.205 104.814 276.967 103.916 277.787 103.135C278.627 102.354 279.467 101.699 280.307 101.172C281.166 100.625 281.996 100.215 282.797 99.9414C283.617 99.668 284.359 99.5312 285.023 99.5312C286.254 99.5312 287.289 99.8047 288.129 100.352C288.988 100.879 289.682 101.602 290.209 102.52C290.756 103.418 291.146 104.463 291.381 105.654C291.635 106.826 291.762 108.057 291.762 109.346L287.074 110.371C287.035 109.59 286.938 108.867 286.781 108.203C286.645 107.539 286.439 106.963 286.166 106.475C285.912 105.986 285.58 105.615 285.17 105.361C284.779 105.088 284.291 104.951 283.705 104.951C283.08 104.951 282.387 105.186 281.625 105.654C280.863 106.123 280.111 106.738 279.369 107.5C278.646 108.242 277.973 109.102 277.348 110.078C276.723 111.035 276.254 112.012 275.941 113.008V130H270.521Z" fill="black"/>
<path d="M300.258 115.791C300.316 117.51 300.58 119.004 301.049 120.273C301.537 121.543 302.191 122.598 303.012 123.438C303.852 124.258 304.828 124.873 305.941 125.283C307.074 125.693 308.305 125.898 309.633 125.898C311.527 125.898 313.383 125.684 315.199 125.254C317.016 124.824 318.822 124.062 320.619 122.969L321.205 127.803C320.17 128.33 319.154 128.779 318.158 129.15C317.162 129.521 316.166 129.824 315.17 130.059C314.174 130.293 313.158 130.459 312.123 130.557C311.107 130.674 310.033 130.732 308.9 130.732C307.025 130.732 305.238 130.41 303.539 129.766C301.84 129.102 300.346 128.135 299.057 126.865C297.768 125.576 296.742 123.984 295.98 122.09C295.219 120.195 294.838 117.998 294.838 115.498C294.838 113.076 295.16 110.889 295.805 108.936C296.469 106.963 297.406 105.283 298.617 103.896C299.828 102.49 301.303 101.416 303.041 100.674C304.779 99.9121 306.732 99.5312 308.9 99.5312C310.502 99.5312 311.918 99.7266 313.148 100.117C314.379 100.488 315.443 101.016 316.342 101.699C317.24 102.363 317.992 103.145 318.598 104.043C319.203 104.941 319.682 105.908 320.033 106.943C320.404 107.979 320.668 109.062 320.824 110.195C320.98 111.309 321.059 112.412 321.059 113.506V114.648C321.059 115.137 321.049 115.518 321.029 115.791H300.258ZM308.461 103.926C306.312 103.926 304.555 104.561 303.188 105.83C301.82 107.08 300.922 109.033 300.492 111.689H315.785C315.785 110.439 315.6 109.336 315.229 108.379C314.877 107.402 314.369 106.582 313.705 105.918C313.061 105.254 312.289 104.756 311.391 104.424C310.492 104.092 309.516 103.926 308.461 103.926Z" fill="black"/>
<path d="M330.756 126.777C330.756 126.23 330.854 125.723 331.049 125.254C331.264 124.766 331.547 124.346 331.898 123.994C332.27 123.623 332.689 123.34 333.158 123.145C333.646 122.93 334.164 122.822 334.711 122.822C335.258 122.822 335.766 122.93 336.234 123.145C336.723 123.34 337.143 123.623 337.494 123.994C337.865 124.346 338.148 124.766 338.344 125.254C338.559 125.723 338.666 126.23 338.666 126.777C338.666 127.324 338.559 127.842 338.344 128.33C338.148 128.799 337.865 129.219 337.494 129.59C337.143 129.941 336.723 130.215 336.234 130.41C335.766 130.625 335.258 130.732 334.711 130.732C334.164 130.732 333.646 130.625 333.158 130.41C332.689 130.215 332.27 129.941 331.898 129.59C331.547 129.219 331.264 128.799 331.049 128.33C330.854 127.842 330.756 127.324 330.756 126.777ZM332.221 117.109C332.162 114.98 332.123 112.754 332.104 110.43C332.084 108.086 332.035 105.615 331.957 103.018C331.898 100.42 331.801 97.6953 331.664 94.8438C331.527 91.9727 331.322 88.9453 331.049 85.7617H338.52C338.227 88.9453 338.012 91.9727 337.875 94.8438C337.738 97.6953 337.631 100.42 337.553 103.018C337.494 105.615 337.455 108.086 337.436 110.43C337.416 112.754 337.387 114.98 337.348 117.109H332.221Z" fill="black"/>
<path d="M394.447 130V110.225H373.354V130H367.348C367.562 128.828 367.689 127.139 367.729 124.932C367.768 122.705 367.787 120.146 367.787 117.256V99.9707C367.787 97.0801 367.768 94.5312 367.729 92.3242C367.689 90.0977 367.562 88.3984 367.348 87.2266H373.354V105.537H394.447V87.2266H400.453C400.238 88.3984 400.111 90.0977 400.072 92.3242C400.033 94.5312 400.014 97.0801 400.014 99.9707V117.256C400.014 120.146 400.033 122.705 400.072 124.932C400.111 127.139 400.238 128.828 400.453 130H394.447Z" fill="black"/>
<path d="M414.105 115.205C414.105 116.904 414.311 118.428 414.721 119.775C415.131 121.123 415.707 122.266 416.449 123.203C417.211 124.121 418.109 124.824 419.145 125.312C420.18 125.801 421.332 126.045 422.602 126.045C423.773 126.045 424.877 125.801 425.912 125.312C426.947 124.824 427.846 124.121 428.607 123.203C429.389 122.266 429.994 121.123 430.424 119.775C430.873 118.428 431.098 116.904 431.098 115.205C431.098 113.486 430.893 111.953 430.482 110.605C430.072 109.238 429.486 108.086 428.725 107.148C427.982 106.191 427.084 105.469 426.029 104.98C424.994 104.473 423.852 104.219 422.602 104.219C421.41 104.219 420.297 104.473 419.262 104.98C418.227 105.469 417.328 106.191 416.566 107.148C415.805 108.086 415.199 109.238 414.75 110.605C414.32 111.953 414.105 113.486 414.105 115.205ZM408.686 115.205C408.686 112.686 409.066 110.459 409.828 108.525C410.59 106.572 411.615 104.932 412.904 103.604C414.193 102.256 415.697 101.24 417.416 100.557C419.135 99.873 420.961 99.5312 422.895 99.5312C424.906 99.5312 426.742 99.873 428.402 100.557C430.082 101.24 431.518 102.256 432.709 103.604C433.92 104.932 434.857 106.572 435.521 108.525C436.186 110.459 436.518 112.686 436.518 115.205C436.518 117.725 436.137 119.951 435.375 121.885C434.613 123.818 433.588 125.439 432.299 126.748C431.01 128.057 429.506 129.053 427.787 129.736C426.068 130.4 424.242 130.732 422.309 130.732C420.297 130.732 418.451 130.4 416.771 129.736C415.111 129.053 413.676 128.057 412.465 126.748C411.273 125.439 410.346 123.818 409.682 121.885C409.018 119.951 408.686 117.725 408.686 115.205Z" fill="black"/>
<path d="M464.203 100.117L471.82 123.701L477.973 100.117H483.393C483.041 101.23 482.729 102.236 482.455 103.135C482.201 104.014 481.957 104.863 481.723 105.684C481.488 106.484 481.254 107.275 481.02 108.057C480.805 108.818 480.57 109.639 480.316 110.518L474.896 130H469.33L462.006 107.002L454.682 130H449.115L443.695 110.518C443.48 109.736 443.256 108.965 443.021 108.203C442.807 107.441 442.572 106.65 442.318 105.83C442.084 105.01 441.83 104.131 441.557 103.193C441.283 102.256 440.971 101.23 440.619 100.117H446.039L452.191 123.701L459.809 100.117H464.203Z" fill="black"/>
<path d="M524.994 104.805C524.506 104.707 523.793 104.59 522.855 104.453C521.938 104.297 520.746 104.219 519.281 104.219C517.367 104.219 515.766 104.609 514.477 105.391C513.207 106.152 512.191 107.178 511.43 108.467C510.668 109.736 510.121 111.201 509.789 112.861C509.477 114.521 509.32 116.23 509.32 117.988C509.32 119.121 509.428 120.166 509.643 121.123C509.877 122.061 510.189 122.881 510.58 123.584C510.971 124.268 511.42 124.805 511.928 125.195C512.436 125.566 512.982 125.752 513.568 125.752C514.213 125.752 514.867 125.537 515.531 125.107C516.215 124.678 516.879 124.102 517.523 123.379C518.188 122.637 518.832 121.787 519.457 120.83C520.082 119.873 520.668 118.867 521.215 117.812C521.762 116.738 522.27 115.654 522.738 114.561C523.207 113.467 523.607 112.432 523.939 111.455C524.271 110.459 524.525 109.551 524.701 108.73C524.896 107.91 524.994 107.236 524.994 106.709V104.805ZM527.191 130C526.977 129.531 526.781 128.828 526.605 127.891C526.449 126.953 526.312 125.947 526.195 124.873C526.098 123.779 526.02 122.715 525.961 121.68C525.902 120.645 525.873 119.805 525.873 119.16V116.23C525.248 117.891 524.496 119.58 523.617 121.299C522.758 123.018 521.771 124.58 520.658 125.986C519.545 127.373 518.314 128.516 516.967 129.414C515.639 130.293 514.213 130.732 512.689 130.732C511.459 130.732 510.307 130.459 509.232 129.912C508.158 129.365 507.221 128.555 506.42 127.48C505.639 126.406 505.023 125.078 504.574 123.496C504.125 121.895 503.9 120.059 503.9 117.988C503.9 115.664 504.213 113.398 504.838 111.191C505.463 108.965 506.42 106.992 507.709 105.273C508.998 103.535 510.639 102.148 512.631 101.113C514.623 100.059 516.986 99.5312 519.721 99.5312C521.615 99.5312 523.5 99.6582 525.375 99.9121C527.25 100.146 528.93 100.459 530.414 100.85V114.473C530.414 118.164 530.59 121.27 530.941 123.789C531.293 126.289 531.752 128.359 532.318 130H527.191Z" fill="black"/>
<path d="M539.057 130V111.982C539.057 109.092 538.891 106.65 538.559 104.658C538.246 102.646 537.924 101.133 537.592 100.117H542.865C542.982 100.43 543.1 100.84 543.217 101.348C543.334 101.836 543.441 102.354 543.539 102.9C543.637 103.447 543.725 103.984 543.803 104.512L544.037 105.83C544.74 104.814 545.502 103.916 546.322 103.135C547.162 102.354 548.002 101.699 548.842 101.172C549.701 100.625 550.531 100.215 551.332 99.9414C552.152 99.668 552.895 99.5312 553.559 99.5312C554.789 99.5312 555.824 99.8047 556.664 100.352C557.523 100.879 558.217 101.602 558.744 102.52C559.291 103.418 559.682 104.463 559.916 105.654C560.17 106.826 560.297 108.057 560.297 109.346L555.609 110.371C555.57 109.59 555.473 108.867 555.316 108.203C555.18 107.539 554.975 106.963 554.701 106.475C554.447 105.986 554.115 105.615 553.705 105.361C553.314 105.088 552.826 104.951 552.24 104.951C551.615 104.951 550.922 105.186 550.16 105.654C549.398 106.123 548.646 106.738 547.904 107.5C547.182 108.242 546.508 109.102 545.883 110.078C545.258 111.035 544.789 112.012 544.477 113.008V130H539.057Z" fill="black"/>
<path d="M568.793 115.791C568.852 117.51 569.115 119.004 569.584 120.273C570.072 121.543 570.727 122.598 571.547 123.438C572.387 124.258 573.363 124.873 574.477 125.283C575.609 125.693 576.84 125.898 578.168 125.898C580.062 125.898 581.918 125.684 583.734 125.254C585.551 124.824 587.357 124.062 589.154 122.969L589.74 127.803C588.705 128.33 587.689 128.779 586.693 129.15C585.697 129.521 584.701 129.824 583.705 130.059C582.709 130.293 581.693 130.459 580.658 130.557C579.643 130.674 578.568 130.732 577.436 130.732C575.561 130.732 573.773 130.41 572.074 129.766C570.375 129.102 568.881 128.135 567.592 126.865C566.303 125.576 565.277 123.984 564.516 122.09C563.754 120.195 563.373 117.998 563.373 115.498C563.373 113.076 563.695 110.889 564.34 108.936C565.004 106.963 565.941 105.283 567.152 103.896C568.363 102.49 569.838 101.416 571.576 100.674C573.314 99.9121 575.268 99.5312 577.436 99.5312C579.037 99.5312 580.453 99.7266 581.684 100.117C582.914 100.488 583.979 101.016 584.877 101.699C585.775 102.363 586.527 103.145 587.133 104.043C587.738 104.941 588.217 105.908 588.568 106.943C588.939 107.979 589.203 109.062 589.359 110.195C589.516 111.309 589.594 112.412 589.594 113.506V114.648C589.594 115.137 589.584 115.518 589.564 115.791H568.793ZM576.996 103.926C574.848 103.926 573.09 104.561 571.723 105.83C570.355 107.08 569.457 109.033 569.027 111.689H584.32C584.32 110.439 584.135 109.336 583.764 108.379C583.412 107.402 582.904 106.582 582.24 105.918C581.596 105.254 580.824 104.756 579.926 104.424C579.027 104.092 578.051 103.926 576.996 103.926Z" fill="black"/>
<path d="M628.002 130C626.986 132.812 625.99 135.107 625.014 136.885C624.037 138.662 623.041 140.059 622.025 141.074C621.029 142.109 619.984 142.812 618.891 143.184C617.816 143.574 616.654 143.77 615.404 143.77C614.057 143.77 612.787 143.555 611.596 143.125C610.424 142.695 609.301 142.08 608.227 141.279L609.984 136.592C610.297 136.846 610.658 137.1 611.068 137.354C611.498 137.627 611.947 137.861 612.416 138.057C612.904 138.271 613.402 138.447 613.91 138.584C614.418 138.721 614.916 138.789 615.404 138.789C615.99 138.789 616.566 138.682 617.133 138.467C617.699 138.271 618.266 137.881 618.832 137.295C619.418 136.729 620.014 135.918 620.619 134.863C621.225 133.828 621.869 132.461 622.553 130.762L614.379 110.518C613.832 109.189 613.197 107.695 612.475 106.035C611.752 104.375 610.824 102.402 609.691 100.117H615.551L625.014 124.053C625.385 122.998 625.785 121.855 626.215 120.625C626.664 119.375 627.123 118.096 627.592 116.787C628.061 115.459 628.529 114.131 628.998 112.803C629.467 111.455 629.916 110.166 630.346 108.936C631.361 106.045 632.387 103.105 633.422 100.117H639.281C638.773 101.25 638.314 102.305 637.904 103.281C637.494 104.238 637.113 105.146 636.762 106.006C636.41 106.846 636.088 107.637 635.795 108.379C635.521 109.121 635.268 109.834 635.033 110.518L628.002 130Z" fill="black"/>
<path d="M648.07 115.205C648.07 116.904 648.275 118.428 648.686 119.775C649.096 121.123 649.672 122.266 650.414 123.203C651.176 124.121 652.074 124.824 653.109 125.312C654.145 125.801 655.297 126.045 656.566 126.045C657.738 126.045 658.842 125.801 659.877 125.312C660.912 124.824 661.811 124.121 662.572 123.203C663.354 122.266 663.959 121.123 664.389 119.775C664.838 118.428 665.062 116.904 665.062 115.205C665.062 113.486 664.857 111.953 664.447 110.605C664.037 109.238 663.451 108.086 662.689 107.148C661.947 106.191 661.049 105.469 659.994 104.98C658.959 104.473 657.816 104.219 656.566 104.219C655.375 104.219 654.262 104.473 653.227 104.98C652.191 105.469 651.293 106.191 650.531 107.148C649.77 108.086 649.164 109.238 648.715 110.605C648.285 111.953 648.07 113.486 648.07 115.205ZM642.65 115.205C642.65 112.686 643.031 110.459 643.793 108.525C644.555 106.572 645.58 104.932 646.869 103.604C648.158 102.256 649.662 101.24 651.381 100.557C653.1 99.873 654.926 99.5312 656.859 99.5312C658.871 99.5312 660.707 99.873 662.367 100.557C664.047 101.24 665.482 102.256 666.674 103.604C667.885 104.932 668.822 106.572 669.486 108.525C670.15 110.459 670.482 112.686 670.482 115.205C670.482 117.725 670.102 119.951 669.34 121.885C668.578 123.818 667.553 125.439 666.264 126.748C664.975 128.057 663.471 129.053 661.752 129.736C660.033 130.4 658.207 130.732 656.273 130.732C654.262 130.732 652.416 130.4 650.736 129.736C649.076 129.053 647.641 128.057 646.43 126.748C645.238 125.439 644.311 123.818 643.646 121.885C642.982 119.951 642.65 117.725 642.65 115.205Z" fill="black"/>
<path d="M700.219 130C700.082 129.668 699.936 129.277 699.779 128.828C699.623 128.379 699.467 127.9 699.311 127.393C699.174 126.885 699.037 126.357 698.9 125.811C698.783 125.244 698.686 124.688 698.607 124.141C696.83 126.309 694.994 127.949 693.1 129.062C691.225 130.176 689.252 130.732 687.182 130.732C680.932 130.732 677.807 126.533 677.807 118.135V109.492C677.807 108.555 677.797 107.705 677.777 106.943C677.777 106.182 677.758 105.449 677.719 104.746C677.68 104.023 677.621 103.291 677.543 102.549C677.465 101.807 677.357 100.996 677.221 100.117H683.227V116.377C683.227 118.037 683.305 119.473 683.461 120.684C683.637 121.875 683.92 122.861 684.311 123.643C684.701 124.404 685.209 124.971 685.834 125.342C686.479 125.713 687.27 125.898 688.207 125.898C689.066 125.898 689.984 125.645 690.961 125.137C691.938 124.609 692.865 123.945 693.744 123.145C694.643 122.344 695.453 121.465 696.176 120.508C696.918 119.531 697.484 118.594 697.875 117.695V109.492C697.875 108.535 697.865 107.676 697.846 106.914C697.846 106.133 697.826 105.391 697.787 104.688C697.748 103.984 697.689 103.271 697.611 102.549C697.533 101.826 697.426 101.016 697.289 100.117H703.295V116.816C703.295 119.668 703.451 122.168 703.764 124.316C704.096 126.445 704.574 128.34 705.199 130H700.219Z" fill="black"/>
<path d="M249.779 203.709C249.057 203.318 248.383 202.986 247.758 202.713C247.133 202.439 246.518 202.215 245.912 202.039C245.307 201.863 244.691 201.736 244.066 201.658C243.441 201.561 242.758 201.512 242.016 201.512C240.902 201.512 239.838 201.766 238.822 202.273C237.807 202.781 236.898 203.514 236.098 204.471C235.316 205.428 234.691 206.6 234.223 207.986C233.754 209.354 233.52 210.906 233.52 212.645C233.52 216.062 234.096 218.65 235.248 220.408C236.42 222.166 238.285 223.045 240.844 223.045C241.742 223.045 242.631 222.82 243.51 222.371C244.408 221.922 245.248 221.336 246.029 220.613C246.83 219.891 247.553 219.07 248.197 218.152C248.842 217.215 249.369 216.258 249.779 215.281V203.709ZM255.199 211.473C255.199 215.164 255.404 218.27 255.814 220.789C256.244 223.289 256.771 225.359 257.396 227H252.123C251.908 226.492 251.645 225.74 251.332 224.744C251.039 223.729 250.766 222.674 250.512 221.58C249.105 223.572 247.514 225.096 245.736 226.15C243.959 227.205 241.986 227.732 239.818 227.732C238.021 227.732 236.4 227.4 234.955 226.736C233.529 226.053 232.299 225.096 231.264 223.865C230.248 222.615 229.467 221.121 228.92 219.383C228.373 217.625 228.1 215.672 228.1 213.523C228.1 210.926 228.451 208.582 229.154 206.492C229.877 204.402 230.863 202.625 232.113 201.16C233.363 199.676 234.828 198.533 236.508 197.732C238.207 196.932 240.043 196.531 242.016 196.531C242.641 196.531 243.285 196.6 243.949 196.736C244.633 196.873 245.307 197.059 245.971 197.293C246.654 197.527 247.318 197.801 247.963 198.113C248.607 198.406 249.213 198.709 249.779 199.021V190.818C249.779 188.455 249.721 186.395 249.604 184.637C249.506 182.859 249.32 181.355 249.047 180.125H255.199V211.473Z" fill="black"/>
<path d="M268.09 212.205C268.09 213.904 268.295 215.428 268.705 216.775C269.115 218.123 269.691 219.266 270.434 220.203C271.195 221.121 272.094 221.824 273.129 222.312C274.164 222.801 275.316 223.045 276.586 223.045C277.758 223.045 278.861 222.801 279.896 222.312C280.932 221.824 281.83 221.121 282.592 220.203C283.373 219.266 283.979 218.123 284.408 216.775C284.857 215.428 285.082 213.904 285.082 212.205C285.082 210.486 284.877 208.953 284.467 207.605C284.057 206.238 283.471 205.086 282.709 204.148C281.967 203.191 281.068 202.469 280.014 201.98C278.979 201.473 277.836 201.219 276.586 201.219C275.395 201.219 274.281 201.473 273.246 201.98C272.211 202.469 271.312 203.191 270.551 204.148C269.789 205.086 269.184 206.238 268.734 207.605C268.305 208.953 268.09 210.486 268.09 212.205ZM262.67 212.205C262.67 209.686 263.051 207.459 263.812 205.525C264.574 203.572 265.6 201.932 266.889 200.604C268.178 199.256 269.682 198.24 271.4 197.557C273.119 196.873 274.945 196.531 276.879 196.531C278.891 196.531 280.727 196.873 282.387 197.557C284.066 198.24 285.502 199.256 286.693 200.604C287.904 201.932 288.842 203.572 289.506 205.525C290.17 207.459 290.502 209.686 290.502 212.205C290.502 214.725 290.121 216.951 289.359 218.885C288.598 220.818 287.572 222.439 286.283 223.748C284.994 225.057 283.49 226.053 281.771 226.736C280.053 227.4 278.227 227.732 276.293 227.732C274.281 227.732 272.436 227.4 270.756 226.736C269.096 226.053 267.66 225.057 266.449 223.748C265.258 222.439 264.33 220.818 263.666 218.885C263.002 216.951 262.67 214.725 262.67 212.205Z" fill="black"/>
<path d="M297.826 187.596C297.826 187.049 297.914 186.541 298.09 186.072C298.266 185.584 298.51 185.164 298.822 184.812C299.154 184.441 299.545 184.158 299.994 183.963C300.443 183.748 300.941 183.641 301.488 183.641C302.035 183.641 302.543 183.748 303.012 183.963C303.48 184.158 303.881 184.441 304.213 184.812C304.545 185.164 304.809 185.584 305.004 186.072C305.199 186.541 305.297 187.049 305.297 187.596C305.297 188.143 305.199 188.66 305.004 189.148C304.809 189.617 304.545 190.037 304.213 190.408C303.881 190.76 303.48 191.043 303.012 191.258C302.543 191.453 302.035 191.551 301.488 191.551C300.941 191.551 300.443 191.453 299.994 191.258C299.545 191.043 299.154 190.76 298.822 190.408C298.51 190.037 298.266 189.617 298.09 189.148C297.914 188.66 297.826 188.143 297.826 187.596ZM304.271 213.084C304.271 214.021 304.281 215.135 304.301 216.424C304.34 217.693 304.379 218.982 304.418 220.291C304.477 221.6 304.535 222.85 304.594 224.041C304.672 225.232 304.76 226.219 304.857 227H298.852V211.473C298.852 210.047 298.842 208.641 298.822 207.254C298.822 205.867 298.803 204.559 298.764 203.328C298.744 202.078 298.705 200.926 298.646 199.871C298.588 198.797 298.51 197.879 298.412 197.117H304.271V213.084Z" fill="black"/>
<path d="M335.209 227V210.887C335.209 209.051 335.082 207.537 334.828 206.346C334.594 205.154 334.232 204.217 333.744 203.533C333.275 202.83 332.67 202.342 331.928 202.068C331.205 201.795 330.346 201.658 329.35 201.658C328.295 201.658 327.26 201.912 326.244 202.42C325.248 202.908 324.33 203.553 323.49 204.354C322.65 205.135 321.908 206.023 321.264 207.02C320.619 208.016 320.141 209.012 319.828 210.008V227H314.408V208.982C314.408 206.092 314.242 203.65 313.91 201.658C313.598 199.646 313.275 198.133 312.943 197.117H318.217C318.334 197.43 318.451 197.84 318.568 198.348C318.686 198.836 318.793 199.354 318.891 199.9C318.988 200.447 319.076 200.984 319.154 201.512L319.389 202.83C321.244 200.604 323.119 199.002 325.014 198.025C326.908 197.029 328.891 196.531 330.961 196.531C334.086 196.531 336.479 197.557 338.139 199.607C339.799 201.639 340.629 204.666 340.629 208.689V227H335.209Z" fill="black"/>
<path d="M368.197 202.684C367.729 202.508 367.23 202.352 366.703 202.215C366.176 202.059 365.639 201.932 365.092 201.834C364.545 201.736 364.008 201.658 363.48 201.6C362.973 201.541 362.494 201.512 362.045 201.512C360.443 201.512 359.076 201.844 357.943 202.508C356.811 203.152 355.883 204.012 355.16 205.086C354.457 206.141 353.939 207.342 353.607 208.689C353.275 210.037 353.109 211.404 353.109 212.791C353.109 214.607 353.246 216.121 353.52 217.332C353.812 218.523 354.203 219.48 354.691 220.203C355.199 220.906 355.785 221.414 356.449 221.727C357.133 222.02 357.875 222.166 358.676 222.166C359.418 222.166 360.209 222.02 361.049 221.727C361.889 221.414 362.729 220.975 363.568 220.408C364.428 219.842 365.248 219.139 366.029 218.299C366.83 217.459 367.553 216.502 368.197 215.428V202.684ZM373.617 226.268C373.617 228.846 373.236 231.053 372.475 232.889C371.732 234.725 370.746 236.219 369.516 237.371C368.305 238.543 366.918 239.402 365.355 239.949C363.793 240.496 362.201 240.77 360.58 240.77C358.705 240.77 356.84 240.447 354.984 239.803C353.148 239.158 351.449 238.309 349.887 237.254L351.791 232.713C353.178 233.709 354.574 234.52 355.98 235.145C357.387 235.77 358.822 236.082 360.287 236.082C361.049 236.082 361.889 235.945 362.807 235.672C363.725 235.398 364.584 234.92 365.385 234.236C366.186 233.572 366.85 232.674 367.377 231.541C367.924 230.408 368.197 228.992 368.197 227.293V221.873C367.436 222.83 366.625 223.65 365.766 224.334C364.926 224.998 364.066 225.545 363.188 225.975C362.328 226.385 361.459 226.688 360.58 226.883C359.721 227.059 358.891 227.146 358.09 227.146C356.742 227.146 355.443 226.912 354.193 226.443C352.943 225.975 351.83 225.232 350.854 224.217C349.896 223.182 349.125 221.844 348.539 220.203C347.973 218.562 347.689 216.58 347.689 214.256C347.689 212.01 347.982 209.822 348.568 207.693C349.154 205.564 350.062 203.68 351.293 202.039C352.523 200.379 354.096 199.051 356.01 198.055C357.943 197.039 360.248 196.531 362.924 196.531C363.803 196.531 364.701 196.6 365.619 196.736C366.557 196.854 367.484 197.02 368.402 197.234C369.32 197.449 370.219 197.693 371.098 197.967C371.977 198.221 372.816 198.475 373.617 198.729V226.268Z" fill="black"/>
<path d="M394.594 197.85H400.453V188.328H405.873V197.85H415.395V202.098H405.873V215.574C405.873 217.078 405.941 218.309 406.078 219.266C406.234 220.223 406.459 220.975 406.752 221.521C407.064 222.049 407.455 222.41 407.924 222.605C408.393 222.801 408.959 222.898 409.623 222.898C410.463 222.898 411.41 222.713 412.465 222.342C413.52 221.971 414.691 221.424 415.98 220.701V225.389C414.633 226.268 413.344 226.873 412.113 227.205C410.883 227.557 409.75 227.732 408.715 227.732C407.562 227.732 406.488 227.596 405.492 227.322C404.496 227.068 403.617 226.609 402.855 225.945C402.113 225.281 401.527 224.402 401.098 223.309C400.668 222.195 400.453 220.789 400.453 219.09V202.098H394.594V197.85Z" fill="black"/>
<path d="M426.41 212.205C426.41 213.904 426.615 215.428 427.025 216.775C427.436 218.123 428.012 219.266 428.754 220.203C429.516 221.121 430.414 221.824 431.449 222.312C432.484 222.801 433.637 223.045 434.906 223.045C436.078 223.045 437.182 222.801 438.217 222.312C439.252 221.824 440.15 221.121 440.912 220.203C441.693 219.266 442.299 218.123 442.729 216.775C443.178 215.428 443.402 213.904 443.402 212.205C443.402 210.486 443.197 208.953 442.787 207.605C442.377 206.238 441.791 205.086 441.029 204.148C440.287 203.191 439.389 202.469 438.334 201.98C437.299 201.473 436.156 201.219 434.906 201.219C433.715 201.219 432.602 201.473 431.566 201.98C430.531 202.469 429.633 203.191 428.871 204.148C428.109 205.086 427.504 206.238 427.055 207.605C426.625 208.953 426.41 210.486 426.41 212.205ZM420.99 212.205C420.99 209.686 421.371 207.459 422.133 205.525C422.895 203.572 423.92 201.932 425.209 200.604C426.498 199.256 428.002 198.24 429.721 197.557C431.439 196.873 433.266 196.531 435.199 196.531C437.211 196.531 439.047 196.873 440.707 197.557C442.387 198.24 443.822 199.256 445.014 200.604C446.225 201.932 447.162 203.572 447.826 205.525C448.49 207.459 448.822 209.686 448.822 212.205C448.822 214.725 448.441 216.951 447.68 218.885C446.918 220.818 445.893 222.439 444.604 223.748C443.314 225.057 441.811 226.053 440.092 226.736C438.373 227.4 436.547 227.732 434.613 227.732C432.602 227.732 430.756 227.4 429.076 226.736C427.416 226.053 425.98 225.057 424.77 223.748C423.578 222.439 422.65 220.818 421.986 218.885C421.322 216.951 420.99 214.725 420.99 212.205Z" fill="black"/>
<path d="M476.361 203.709C475.639 203.318 474.965 202.986 474.34 202.713C473.715 202.439 473.1 202.215 472.494 202.039C471.889 201.863 471.273 201.736 470.648 201.658C470.023 201.561 469.34 201.512 468.598 201.512C467.484 201.512 466.42 201.766 465.404 202.273C464.389 202.781 463.48 203.514 462.68 204.471C461.898 205.428 461.273 206.6 460.805 207.986C460.336 209.354 460.102 210.906 460.102 212.645C460.102 216.062 460.678 218.65 461.83 220.408C463.002 222.166 464.867 223.045 467.426 223.045C468.324 223.045 469.213 222.82 470.092 222.371C470.99 221.922 471.83 221.336 472.611 220.613C473.412 219.891 474.135 219.07 474.779 218.152C475.424 217.215 475.951 216.258 476.361 215.281V203.709ZM481.781 211.473C481.781 215.164 481.986 218.27 482.396 220.789C482.826 223.289 483.354 225.359 483.979 227H478.705C478.49 226.492 478.227 225.74 477.914 224.744C477.621 223.729 477.348 222.674 477.094 221.58C475.688 223.572 474.096 225.096 472.318 226.15C470.541 227.205 468.568 227.732 466.4 227.732C464.604 227.732 462.982 227.4 461.537 226.736C460.111 226.053 458.881 225.096 457.846 223.865C456.83 222.615 456.049 221.121 455.502 219.383C454.955 217.625 454.682 215.672 454.682 213.523C454.682 210.926 455.033 208.582 455.736 206.492C456.459 204.402 457.445 202.625 458.695 201.16C459.945 199.676 461.41 198.533 463.09 197.732C464.789 196.932 466.625 196.531 468.598 196.531C469.223 196.531 469.867 196.6 470.531 196.736C471.215 196.873 471.889 197.059 472.553 197.293C473.236 197.527 473.9 197.801 474.545 198.113C475.189 198.406 475.795 198.709 476.361 199.021V190.818C476.361 188.455 476.303 186.395 476.186 184.637C476.088 182.859 475.902 181.355 475.629 180.125H481.781V211.473Z" fill="black"/>
<path d="M510.639 201.805C510.15 201.707 509.438 201.59 508.5 201.453C507.582 201.297 506.391 201.219 504.926 201.219C503.012 201.219 501.41 201.609 500.121 202.391C498.852 203.152 497.836 204.178 497.074 205.467C496.312 206.736 495.766 208.201 495.434 209.861C495.121 211.521 494.965 213.23 494.965 214.988C494.965 216.121 495.072 217.166 495.287 218.123C495.521 219.061 495.834 219.881 496.225 220.584C496.615 221.268 497.064 221.805 497.572 222.195C498.08 222.566 498.627 222.752 499.213 222.752C499.857 222.752 500.512 222.537 501.176 222.107C501.859 221.678 502.523 221.102 503.168 220.379C503.832 219.637 504.477 218.787 505.102 217.83C505.727 216.873 506.312 215.867 506.859 214.812C507.406 213.738 507.914 212.654 508.383 211.561C508.852 210.467 509.252 209.432 509.584 208.455C509.916 207.459 510.17 206.551 510.346 205.73C510.541 204.91 510.639 204.236 510.639 203.709V201.805ZM512.836 227C512.621 226.531 512.426 225.828 512.25 224.891C512.094 223.953 511.957 222.947 511.84 221.873C511.742 220.779 511.664 219.715 511.605 218.68C511.547 217.645 511.518 216.805 511.518 216.16V213.23C510.893 214.891 510.141 216.58 509.262 218.299C508.402 220.018 507.416 221.58 506.303 222.986C505.189 224.373 503.959 225.516 502.611 226.414C501.283 227.293 499.857 227.732 498.334 227.732C497.104 227.732 495.951 227.459 494.877 226.912C493.803 226.365 492.865 225.555 492.064 224.48C491.283 223.406 490.668 222.078 490.219 220.496C489.77 218.895 489.545 217.059 489.545 214.988C489.545 212.664 489.857 210.398 490.482 208.191C491.107 205.965 492.064 203.992 493.354 202.273C494.643 200.535 496.283 199.148 498.275 198.113C500.268 197.059 502.631 196.531 505.365 196.531C507.26 196.531 509.145 196.658 511.02 196.912C512.895 197.146 514.574 197.459 516.059 197.85V211.473C516.059 215.164 516.234 218.27 516.586 220.789C516.938 223.289 517.396 225.359 517.963 227H512.836Z" fill="black"/>
<path d="M539.35 227C538.334 229.812 537.338 232.107 536.361 233.885C535.385 235.662 534.389 237.059 533.373 238.074C532.377 239.109 531.332 239.812 530.238 240.184C529.164 240.574 528.002 240.77 526.752 240.77C525.404 240.77 524.135 240.555 522.943 240.125C521.771 239.695 520.648 239.08 519.574 238.279L521.332 233.592C521.645 233.846 522.006 234.1 522.416 234.354C522.846 234.627 523.295 234.861 523.764 235.057C524.252 235.271 524.75 235.447 525.258 235.584C525.766 235.721 526.264 235.789 526.752 235.789C527.338 235.789 527.914 235.682 528.48 235.467C529.047 235.271 529.613 234.881 530.18 234.295C530.766 233.729 531.361 232.918 531.967 231.863C532.572 230.828 533.217 229.461 533.9 227.762L525.727 207.518C525.18 206.189 524.545 204.695 523.822 203.035C523.1 201.375 522.172 199.402 521.039 197.117H526.898L536.361 221.053C536.732 219.998 537.133 218.855 537.562 217.625C538.012 216.375 538.471 215.096 538.939 213.787C539.408 212.459 539.877 211.131 540.346 209.803C540.814 208.455 541.264 207.166 541.693 205.936C542.709 203.045 543.734 200.105 544.77 197.117H550.629C550.121 198.25 549.662 199.305 549.252 200.281C548.842 201.238 548.461 202.146 548.109 203.006C547.758 203.846 547.436 204.637 547.143 205.379C546.869 206.121 546.615 206.834 546.381 207.518L539.35 227Z" fill="black"/>
<path d="M560.443 223.777C560.443 223.23 560.541 222.723 560.736 222.254C560.951 221.766 561.234 221.346 561.586 220.994C561.957 220.623 562.377 220.34 562.846 220.145C563.334 219.93 563.852 219.822 564.398 219.822C564.945 219.822 565.453 219.93 565.922 220.145C566.41 220.34 566.83 220.623 567.182 220.994C567.553 221.346 567.836 221.766 568.031 222.254C568.246 222.723 568.354 223.23 568.354 223.777C568.354 224.324 568.246 224.842 568.031 225.33C567.836 225.799 567.553 226.219 567.182 226.59C566.83 226.941 566.41 227.215 565.922 227.41C565.453 227.625 564.945 227.732 564.398 227.732C563.852 227.732 563.334 227.625 562.846 227.41C562.377 227.215 561.957 226.941 561.586 226.59C561.234 226.219 560.951 225.799 560.736 225.33C560.541 224.842 560.443 224.324 560.443 223.777ZM564.691 181.883C566.43 181.883 567.973 182.098 569.32 182.527C570.668 182.938 571.801 183.523 572.719 184.285C573.637 185.047 574.33 185.975 574.799 187.068C575.287 188.143 575.531 189.344 575.531 190.672C575.531 191.57 575.395 192.42 575.121 193.221C574.867 194.002 574.516 194.764 574.066 195.506C573.637 196.229 573.129 196.951 572.543 197.674C571.957 198.377 571.342 199.1 570.697 199.842C569.936 200.721 569.311 201.58 568.822 202.42C568.354 203.24 567.982 204.178 567.709 205.232C567.455 206.268 567.279 207.498 567.182 208.924C567.084 210.33 567.035 212.059 567.035 214.109H561.615C561.615 211.98 561.693 210.115 561.85 208.514C562.006 206.912 562.24 205.496 562.553 204.266C562.865 203.016 563.256 201.912 563.725 200.955C564.213 199.998 564.779 199.109 565.424 198.289C566.068 197.469 566.645 196.727 567.152 196.062C567.66 195.379 568.09 194.754 568.441 194.188C568.793 193.602 569.057 193.055 569.232 192.547C569.428 192.02 569.525 191.492 569.525 190.965C569.525 190.535 569.428 190.086 569.232 189.617C569.057 189.148 568.744 188.729 568.295 188.357C567.865 187.967 567.289 187.645 566.566 187.391C565.844 187.137 564.945 187.01 563.871 187.01C562.699 187.01 561.479 187.273 560.209 187.801C558.939 188.328 557.748 189.178 556.635 190.35L555.316 185.105C555.805 184.637 556.391 184.207 557.074 183.816C557.777 183.426 558.539 183.094 559.359 182.82C560.18 182.527 561.039 182.303 561.938 182.146C562.855 181.971 563.773 181.883 564.691 181.883Z" fill="black"/>
</svg>
